<?xml version="1.0" standalone="no"?>
<!DOCTYPE svg PUBLIC "-//W3C//DTD SVG 20010904//EN"
 "http://www.w3.org/TR/2001/REC-SVG-20010904/DTD/svg10.dtd">
<svg version="1.0" xmlns="http://www.w3.org/2000/svg"
 width="700.000000pt" height="700.000000pt" viewBox="0 0 700.000000 700.000000"
 preserveAspectRatio="xMidYMid meet">
<metadata>
Created by potrace 1.14, written by Peter Selinger 2001-2017
</metadata>
<g transform="translate(0.000000,700.000000) scale(0.100000,-0.100000)"
fill="#000000" stroke="none">
<path d="M2270 4405 c0 -19 -14 -17 178 -19 149 -1 162 0 162 16 0 17 -14 18
-170 18 -144 0 -170 -2 -170 -15z"/>
<path d="M1515 4180 c-120 -25 -210 -142 -177 -230 23 -59 74 -93 243 -160
175 -69 221 -110 201 -178 -27 -89 -157 -144 -280 -118 -63 14 -140 77 -146
122 -4 28 -46 32 -46 4 0 -50 53 -112 130 -151 37 -18 61 -22 130 -22 95 0
138 14 195 64 45 40 65 78 65 124 0 82 -51 126 -227 195 -198 79 -227 103
-224 184 3 70 126 136 228 122 76 -10 152 -72 156 -126 2 -26 47 -29 47 -3 0
32 -41 98 -77 126 -54 40 -149 61 -218 47z"/>
<path d="M2440 4183 c-9 -2 -60 -107 -124 -256 -60 -139 -120 -274 -132 -302
-87 -196 -85 -188 -52 -183 18 2 41 46 137 268 151 345 172 392 176 388 2 -2
35 -77 75 -168 39 -91 82 -188 94 -216 13 -28 43 -95 66 -150 46 -108 59 -128
84 -122 16 3 20 -6 -204 508 -96 222 -104 236 -120 233z"/>
<path d="M3119 4181 c0 -8 0 -635 0 -693 1 -41 4 -48 21 -48 24 0 22 -31 22
324 1 159 4 282 8 275 5 -8 41 -86 80 -174 193 -426 192 -425 212 -425 5 0 22
30 39 68 16 37 78 173 137 304 l107 236 3 -305 2 -304 23 3 22 3 0 367 c0 363
-2 389 -32 370 -5 -4 -77 -154 -158 -334 l-148 -327 -24 52 c-14 29 -53 115
-88 192 -35 77 -77 172 -95 210 -18 39 -47 102 -65 141 -21 45 -38 71 -49 71
-9 0 -16 -3 -17 -6z"/>
<path d="M4451 4172 c-5 -9 -61 -138 -126 -287 -64 -148 -130 -298 -146 -333
-42 -91 -46 -112 -22 -112 12 0 25 11 33 28 7 15 69 155 137 312 69 157 130
294 135 304 9 16 14 9 40 -50 16 -38 35 -82 42 -99 8 -16 48 -106 89 -200 136
-311 128 -295 154 -295 13 0 22 3 20 8 -2 4 -75 170 -162 369 -87 199 -164
364 -171 367 -8 3 -18 -2 -23 -12z"/>
<path d="M5148 4178 c-4 -11 -3 -672 1 -720 0 -11 9 -18 21 -18 20 0 20 7 20
326 l0 327 135 -189 c75 -104 179 -251 233 -326 61 -86 104 -137 115 -138 16
0 17 22 15 372 -3 336 -5 371 -20 374 -22 3 -23 -7 -23 -348 0 -227 -2 -295
-11 -285 -7 6 -110 149 -230 317 -238 333 -245 342 -256 308z"/>
<path d="M3010 3299 c-29 -32 -111 -192 -164 -320 -25 -59 -37 -73 -99 -120
-38 -30 -86 -63 -105 -75 -86 -52 34 -22 131 33 9 5 1 -45 -13 -82 -22 -59
-13 -138 18 -150 14 -5 15 -4 5 6 -19 19 -16 85 9 168 20 70 24 74 64 91 63
27 189 61 279 75 44 7 70 14 58 15 -13 1 -29 3 -35 4 -11 2 -87 -11 -175 -30
-12 -2 -50 -13 -84 -24 -35 -10 -65 -17 -67 -15 -9 9 28 46 98 101 65 50 161
127 196 159 90 81 180 145 203 145 13 0 14 2 2 9 -8 6 -24 6 -38 0 -21 -8 -80
-45 -93 -59 -6 -6 -175 -154 -210 -184 -35 -30 -103 -81 -118 -90 -20 -12 123
277 164 331 33 43 12 53 -26 12z m-210 -434 c0 -2 -10 -10 -22 -16 -21 -11
-22 -11 -9 4 13 16 31 23 31 12z"/>
<path d="M4302 3223 c3 -16 20 -18 171 -19 156 -1 167 1 167 18 0 17 -12 18
-171 18 -157 0 -170 -1 -167 -17z"/>
<path d="M3297 3073 c-12 -11 -8 -23 8 -23 8 0 15 7 15 15 0 16 -12 20 -23 8z"/>
<path d="M3333 3065 c-3 -9 -3 -19 1 -22 8 -9 37 18 30 28 -8 14 -24 11 -31
-6z"/>
<path d="M3763 3015 c-3 -9 -3 -18 0 -22 10 -10 37 6 37 22 0 20 -29 20 -37 0z"/>
<path d="M4283 3015 c-3 -9 -3 -18 -1 -21 9 -9 38 8 38 22 0 19 -29 18 -37 -1z"/>
<path d="M3273 2992 c-25 -19 -45 -65 -37 -85 3 -8 -6 -36 -20 -62 -66 -124 4
-153 89 -37 17 22 42 45 58 51 26 10 27 9 21 -17 -3 -15 -7 -32 -9 -39 -4 -13
20 -43 34 -43 15 0 48 35 100 104 28 38 51 62 51 54 0 -40 -43 -134 -79 -173
-66 -72 -93 -145 -53 -145 28 0 58 37 92 115 30 67 41 81 102 125 l26 20 -10
-28 c-6 -16 -8 -36 -5 -46 10 -25 64 -20 111 12 69 47 67 46 55 18 -17 -36 -3
-75 29 -87 15 -5 33 -21 39 -36 17 -35 10 -40 -17 -13 -23 23 -36 21 -27 -4 8
-20 55 -32 70 -17 8 8 8 14 -1 23 -22 22 -12 34 38 47 28 7 90 32 138 56 l88
42 -1 -26 c0 -24 3 -26 41 -25 40 0 81 23 159 88 48 39 22 40 -30 1 -54 -42
-123 -80 -131 -72 -6 6 29 79 58 120 42 59 -12 40 -61 -21 -33 -42 -132 -100
-228 -133 -137 -47 -180 0 -98 107 50 66 102 66 69 1 -15 -28 -12 -50 5 -31
18 20 29 72 18 83 -26 26 -57 13 -193 -81 -86 -60 -100 -61 -79 -10 9 20 27
54 40 74 14 21 25 40 25 43 0 13 -23 2 -57 -29 -44 -39 -123 -90 -123 -79 1 5
7 33 14 64 19 79 6 95 -37 47 -17 -20 -50 -61 -72 -92 -45 -62 -70 -81 -55
-40 6 14 21 50 35 80 30 65 31 74 6 74 -11 0 -27 -16 -42 -45 -13 -25 -27 -45
-31 -45 -3 0 -14 -3 -24 -7 -15 -5 -16 -2 -9 23 4 16 7 40 6 54 -3 47 -51 70
-88 42z m65 -14 c11 -15 7 -70 -8 -98 -5 -10 -18 -17 -27 -15 -10 2 -21 4 -25
4 -4 1 -5 8 -1 17 3 9 0 20 -7 24 -23 14 13 80 44 80 8 0 18 -6 24 -12z m-43
-127 c17 -7 15 -12 -28 -57 -52 -54 -63 -44 -27 26 21 42 23 43 55 31z m176
-179 c-19 -38 -41 -62 -41 -46 0 13 52 96 57 91 2 -3 -5 -23 -16 -45z"/>
</g>
</svg>
